<?xml version="1.0" encoding="UTF-8"?>
<svg id="Calque_1" data-name="Calque 1" xmlns="http://www.w3.org/2000/svg" xmlns:xlink="http://www.w3.org/1999/xlink" version="1.1" viewBox="0 0 2054 618">
  <defs>
    <style>
      .cls-1 {
        fill: url(#Dégradé_sans_nom);
      }

      .cls-1, .cls-2 {
        stroke-width: 0px;
      }

      .cls-2 {
        fill: #000;
      }
    </style>
    <linearGradient id="Dégradé_sans_nom" data-name="Dégradé sans nom" x1="1027" y1="601.7" x2="1027" y2="307.7" gradientTransform="translate(0 868.7) scale(1 -1)" gradientUnits="userSpaceOnUse">
      <stop offset="0" stop-color="#fbfbfb"/>
      <stop offset="1" stop-color="#fbf1d6"/>
    </linearGradient>
  </defs>
  <rect class="cls-1" y="267" width="2054" height="294" rx="50" ry="50"/>
  <path class="cls-2" d="M100.4,238c0,.3.1,2.3.4,6l-27.6,2.4v263.6h110.4l8-64,7.6,2-6,70h-92.8l-80.4.4.4-5.6,20.8-2.8c2.7-.3,4.3-2,4.8-5.2v-253.2c-.5-3.2-2.1-4.9-4.8-5.2l-20.8-2-.4-6,80.4-.4ZM312.9,334.4v175.6l30,2c0,.3-.1,2.3-.4,6l-80,.4c0-2.4.1-4.3.4-5.6l20.8-2.8c1.6,0,2.7-1.2,3.2-3.6v-175.6c-.5-1.9-1.3-2.8-2.4-2.8l-24-.8.4-5.6c14.4-2.4,25.3-3.6,32.8-3.6s12.5,1.7,15.2,5.2c2.7,3.5,4,7.2,4,11.2ZM299.3,264.4c-5.3,0-9.5-1.6-12.4-4.8-2.9-3.5-4.4-7.9-4.4-13.2s1.5-10,4.4-13.2c3.2-3.5,7.5-5.2,12.8-5.2s9.6,1.7,12.8,5.2c3.5,3.2,5.2,7.7,5.2,13.6s-1.7,10-5.2,13.2c-3.5,2.9-7.9,4.4-13.2,4.4ZM403.4,559.2c0-25.1,15.2-46.5,45.6-64.4-13.1-7.2-19.6-16.3-19.6-27.2s5.3-19.9,16-26c-20.8-9.3-31.2-29.1-31.2-59.2s7.7-36.7,23.2-48.4c15.5-11.7,35.2-17.6,59.2-17.6s21.9,1.3,32,4l66.8-4-.8,15.2-47.6-2.8c17.3,11.2,26,28.1,26,50.8s-7.3,40-22,52c-14.7,12-33.6,18-56.8,18s-28.1-1.3-38-4c-4.5,5.1-6.8,10.9-6.8,17.6,0,12,4.8,20.7,14.4,26,10.4,6.1,28.8,11.5,55.2,16,6.1,1.1,10.5,2,13.2,2.8,2.9.5,7.1,1.3,12.4,2.4,5.3,1.1,9.3,2.1,12,3.2,2.7.8,6,2.1,10,4,4.3,1.6,7.5,3.2,9.6,4.8,2.1,1.6,4.5,3.6,7.2,6,2.7,2.4,4.7,5.1,6,8,2.9,6.9,4.4,14.9,4.4,24s-2.8,18.1-8.4,26.4c-5.6,8.3-13.3,14.5-23.2,18.8-19.2,8.3-41.2,12.4-66,12.4s-56.5-5.9-71.2-17.6c-14.4-11.5-21.6-25.2-21.6-41.2ZM455.4,498c-17.3,18.9-26,37.5-26,55.6s5.2,32.1,15.6,42c10.7,10.1,26.8,15.2,48.4,15.2s39.3-4.1,53.2-12.4c14.1-8.3,21.2-21.5,21.2-39.6s-4.5-24.9-13.6-31.6c-8.8-6.7-21.3-11.6-37.6-14.8-32.8-6.1-53.2-10.9-61.2-14.4ZM495.4,321.6c-16.5,0-29.9,5.2-40,15.6-10.1,10.1-15.2,25.5-15.2,46s3.9,35.9,11.6,46c7.7,10.1,20.3,15.2,37.6,15.2s31.3-5.7,41.2-17.2c10.1-11.7,15.2-27.5,15.2-47.2,0-38.9-16.8-58.4-50.4-58.4ZM711.6,234.4v108.4c34.9-24,66.5-31.5,94.8-22.4,6.4,1.9,11.9,4.7,16.4,8.4,4.8,3.5,8.9,8.8,12.4,16,3.5,7.2,5.2,15.9,5.2,26v139.2l30,2c0,.3-.1,2.3-.4,6l-80,.4c0-2.4.1-4.3.4-5.6l20.8-2.8c1.6,0,2.7-1.2,3.2-3.6v-125.2c0-10.4-1.5-19.3-4.4-26.8-2.7-7.7-5.9-13.3-9.6-16.8-3.7-3.5-8.1-6.1-13.2-8-6.9-2.7-13.1-3.7-18.4-3.2-17.3.5-36.4,7.6-57.2,21.2v162.4l30,2c0,.3-.1,2.3-.4,6l-80,.4c0-2.4.1-4.3.4-5.6l20.8-2.8c2.1-.3,3.2-2.1,3.2-5.6V232.4c0-2.9-.8-4.4-2.4-4.4l-24-.8.4-5.6c14.4-2.4,25.3-3.6,32.8-3.6s12.5,1.7,15.2,5.2c2.7,3.5,4,7.2,4,11.2ZM1009.8,510.4l15.6-.8,1.2,4c-.3,0-2.1.4-5.6,1.2-8,1.9-16.9,2.8-26.8,2.8-9.1-.5-17.3-2-24.8-4.4-7.5-2.7-14.4-8-20.8-16-6.4-8.3-9.6-18.8-9.6-31.6v-140.4h-20.4l3.2-3.2,17.6-3.6,3.2-38.4,22.4-2v40h48.4v7.2h-48.4v133.6c0,20.3,4.3,34,12.8,41.2,8.5,6.9,19.2,10.4,32,10.4ZM1097.6,244l.4-6h52.8l95.6,202.8,94-202.8h52.8c0,.5.1,1.5.4,2.8.3,1.3.3,2.4,0,3.2l-21.2,2.4c-2.7.3-4.3,2-4.8,5.2v258.8l29.6,1.6c0,.3-.1,2.3-.4,6l-80.4.4.4-5.6,20.8-2.8c2.7-.3,4.3-1.9,4.8-4.8v-252.8l-91.2,197.2-8,16h-9.2l-101.2-213.6v257.6l45.6,2.4c0,.3-.1,2.3-.4,6l-80.4.4.4-5.6,20.8-2.8c2.7-.3,4.3-2,4.8-5.2v-253.2c-.5-3.2-2.1-4.9-4.8-5.2l-21.2-2.4ZM1479.3,426c0,57.6,22.4,86.4,67.2,86.4s24.3-1.2,37.6-3.6c13.3-2.7,21.9-5.1,25.6-7.2l2.8,4c-6.1,4-16.3,7.3-30.4,10-13.9,2.7-26.7,4-38.4,4s-21.9-1.2-31.2-3.6c-9.1-2.4-18.4-6.7-28-12.8s-17.2-15.7-22.8-28.8c-5.6-13.1-8.4-29.1-8.4-48,0-35.2,9.1-62.1,27.2-80.8,18.9-19.5,40.9-29.2,66-29.2s44.1,6.9,57.2,20.8c13.3,13.9,20,33.3,20,58.4s-.4,11.1-1.2,17.2h-142.8c-.3,2.9-.4,7.3-.4,13.2ZM1600.1,392.8c0-20-4.4-36.3-13.2-48.8-8.8-12.8-20.8-19.2-36-19.2s-36.4,8.7-50,26c-10.9,13.6-17.7,31.7-20.4,54.4h119.2c.3-2.9.4-7.1.4-12.4ZM1721.7,426c0,57.6,22.4,86.4,67.2,86.4s24.3-1.2,37.6-3.6c13.3-2.7,21.9-5.1,25.6-7.2l2.8,4c-6.1,4-16.3,7.3-30.4,10-13.9,2.7-26.7,4-38.4,4s-21.9-1.2-31.2-3.6c-9.1-2.4-18.4-6.7-28-12.8-9.6-6.1-17.2-15.7-22.8-28.8-5.6-13.1-8.4-29.1-8.4-48,0-35.2,9.1-62.1,27.2-80.8,18.9-19.5,40.9-29.2,66-29.2s44.1,6.9,57.2,20.8c13.3,13.9,20,33.3,20,58.4s-.4,11.1-1.2,17.2h-142.8c-.3,2.9-.4,7.3-.4,13.2ZM1842.5,392.8c0-20-4.4-36.3-13.2-48.8-8.8-12.8-20.8-19.2-36-19.2s-36.4,8.7-50,26c-10.9,13.6-17.7,31.7-20.4,54.4h119.2c.3-2.9.4-7.1.4-12.4ZM2021.3,510.4l15.6-.8,1.2,4c-.3,0-2.1.4-5.6,1.2-8,1.9-16.9,2.8-26.8,2.8-9.1-.5-17.3-2-24.8-4.4-7.5-2.7-14.4-8-20.8-16-6.4-8.3-9.6-18.8-9.6-31.6v-140.4h-20.4l3.2-3.2,17.6-3.6,3.2-38.4,22.4-2v40h48.4v7.2h-48.4v133.6c0,20.3,4.3,34,12.8,41.2,8.5,6.9,19.2,10.4,32,10.4Z"/>
  <rect class="cls-2" x="1039" y="117.6" width="117" height="5.8" transform="translate(697 1149.4) rotate(-75)"/>
  <rect class="cls-2" x="1013.7" width="5.8" height="175.4"/>
  <rect class="cls-2" x="938.1" y="60" width="5.8" height="117" transform="translate(-6.3 165.2) rotate(-10)"/>
  <rect class="cls-2" x="1147.9" y="143.7" width="70.2" height="5.8" transform="translate(498.2 1122.3) rotate(-62)"/>
  <rect class="cls-2" x="863.3" y="110.9" width="5.8" height="70.2" transform="translate(-.3 290) rotate(-19)"/>
</svg>