<svg width="210" height="78" viewBox="0 0 210 78" fill="none" xmlns="http://www.w3.org/2000/svg">
<g filter="url(#filter0_d_493_55)">
<path d="M10.04 36C10.04 36.0267 10.0533 36.2267 10.08 36.6L7.32 36.84V63.2H18.36L19.16 56.8L19.92 57L19.32 64H10.04L2 64.04L2.04 63.48L4.12 63.2C4.38667 63.1733 4.54667 63 4.6 62.68V37.36C4.54667 37.04 4.38667 36.8667 4.12 36.84L2.04 36.64L2 36.04L10.04 36ZM31.2884 45.64V63.2L34.2884 63.4C34.2884 63.4267 34.2751 63.6267 34.2484 64L26.2484 64.04C26.2484 63.8 26.2618 63.6133 26.2884 63.48L28.3684 63.2C28.5284 63.2 28.6351 63.08 28.6884 62.84V45.28C28.6351 45.0933 28.5551 45 28.4484 45L26.0484 44.92L26.0884 44.36C27.5284 44.12 28.6218 44 29.3684 44C30.1151 44 30.6218 44.1733 30.8884 44.52C31.1551 44.8667 31.2884 45.24 31.2884 45.64ZM29.9284 38.64C29.3951 38.64 28.9818 38.48 28.6884 38.16C28.3951 37.8133 28.2484 37.3733 28.2484 36.84C28.2484 36.28 28.3951 35.84 28.6884 35.52C29.0084 35.1733 29.4351 35 29.9684 35C30.5018 35 30.9284 35.1733 31.2484 35.52C31.5951 35.84 31.7684 36.2933 31.7684 36.88C31.7684 37.44 31.5951 37.88 31.2484 38.2C30.9018 38.4933 30.4618 38.64 29.9284 38.64ZM40.3431 68.12C40.3431 65.6133 41.8631 63.4667 44.9031 61.68C43.5965 60.96 42.9431 60.0533 42.9431 58.96C42.9431 57.84 43.4765 56.9733 44.5431 56.36C42.4631 55.4267 41.4231 53.4533 41.4231 50.44C41.4231 48.3867 42.1965 46.7733 43.7431 45.6C45.2898 44.4267 47.2631 43.84 49.6631 43.84C50.7831 43.84 51.8498 43.9733 52.8631 44.24L59.5431 43.84L59.4631 45.36L54.7031 45.08C56.4365 46.2 57.3031 47.8933 57.3031 50.16C57.3031 52.4267 56.5698 54.16 55.1031 55.36C53.6365 56.56 51.7431 57.16 49.4231 57.16C47.8765 57.16 46.6098 57.0267 45.6231 56.76C45.1698 57.2667 44.9431 57.8533 44.9431 58.52C44.9431 59.72 45.4231 60.5867 46.3831 61.12C47.4231 61.7333 49.2631 62.2667 51.9031 62.72C52.5165 62.8267 52.9565 62.92 53.2231 63C53.5165 63.0533 53.9298 63.1333 54.4631 63.24C54.9965 63.3467 55.3965 63.4533 55.6631 63.56C55.9298 63.64 56.2631 63.7733 56.6631 63.96C57.0898 64.12 57.4098 64.28 57.6231 64.44C57.8365 64.6 58.0765 64.8 58.3431 65.04C58.6098 65.28 58.8098 65.5467 58.9431 65.84C59.2365 66.5333 59.3831 67.3333 59.3831 68.24C59.3831 69.1733 59.1031 70.0533 58.5431 70.88C57.9831 71.7067 57.2098 72.3333 56.2231 72.76C54.3031 73.5867 52.1031 74 49.6231 74C46.3431 74 43.9698 73.4133 42.5031 72.24C41.0631 71.0933 40.3431 69.72 40.3431 68.12ZM45.5431 62C43.8098 63.8933 42.9431 65.7467 42.9431 67.56C42.9431 69.3733 43.4631 70.7733 44.5031 71.76C45.5698 72.7733 47.1831 73.28 49.3431 73.28C51.5031 73.28 53.2765 72.8667 54.6631 72.04C56.0765 71.2133 56.7831 69.8933 56.7831 68.08C56.7831 66.64 56.3298 65.5867 55.4231 64.92C54.5431 64.2533 53.2898 63.76 51.6631 63.44C48.3831 62.8267 46.3431 62.3467 45.5431 62ZM49.5431 44.36C47.8898 44.36 46.5565 44.88 45.5431 45.92C44.5298 46.9333 44.0231 48.4667 44.0231 50.52C44.0231 52.5733 44.4098 54.1067 45.1831 55.12C45.9565 56.1333 47.2098 56.64 48.9431 56.64C50.7031 56.64 52.0765 56.0667 53.0631 54.92C54.0765 53.7467 54.5831 52.1733 54.5831 50.2C54.5831 46.3067 52.9031 44.36 49.5431 44.36ZM71.1634 35.64V46.48C74.6568 44.08 77.8168 43.3333 80.6434 44.24C81.2834 44.4267 81.8301 44.7067 82.2834 45.08C82.7634 45.4267 83.1768 45.96 83.5234 46.68C83.8701 47.4 84.0434 48.2667 84.0434 49.28V63.2L87.0434 63.4C87.0434 63.4267 87.0301 63.6267 87.0034 64L79.0034 64.04C79.0034 63.8 79.0168 63.6133 79.0434 63.48L81.1234 63.2C81.2834 63.2 81.3901 63.08 81.4434 62.84V50.32C81.4434 49.28 81.2968 48.3867 81.0034 47.64C80.7368 46.8667 80.4168 46.3067 80.0434 45.96C79.6701 45.6133 79.2301 45.3467 78.7234 45.16C78.0301 44.8933 77.4168 44.7867 76.8834 44.84C75.1501 44.8933 73.2434 45.6 71.1634 46.96V63.2L74.1634 63.4C74.1634 63.4267 74.1501 63.6267 74.1234 64L66.1234 64.04C66.1234 63.8 66.1368 63.6133 66.1634 63.48L68.2434 63.2C68.4568 63.1733 68.5634 62.9867 68.5634 62.64V35.44C68.5634 35.1467 68.4834 35 68.3234 35L65.9234 34.92L65.9634 34.36C67.4034 34.12 68.4968 34 69.2434 34C69.9901 34 70.4968 34.1733 70.7634 34.52C71.0301 34.8667 71.1634 35.24 71.1634 35.64ZM100.978 63.24L102.538 63.16L102.658 63.56C102.631 63.56 102.444 63.6 102.098 63.68C101.298 63.8667 100.404 63.96 99.4178 63.96C98.5111 63.9067 97.6845 63.76 96.9378 63.52C96.1911 63.2533 95.4978 62.72 94.8578 61.92C94.2178 61.0933 93.8978 60.04 93.8978 58.76V44.72H91.8578L92.1778 44.4L93.9378 44.04L94.2578 40.2L96.4978 40V44H101.338V44.72H96.4978V58.08C96.4978 60.1067 96.9245 61.48 97.7778 62.2C98.6311 62.8933 99.6978 63.24 100.978 63.24ZM109.762 36.6L109.802 36H115.082L124.642 56.28L134.042 36H139.322C139.322 36.0533 139.336 36.1467 139.362 36.28C139.389 36.4133 139.389 36.52 139.362 36.6L137.242 36.84C136.976 36.8667 136.816 37.04 136.762 37.36V63.24L139.722 63.4C139.722 63.4267 139.709 63.6267 139.682 64L131.642 64.04L131.682 63.48L133.762 63.2C134.029 63.1733 134.189 63.0133 134.242 62.72V37.44L125.122 57.16L124.322 58.76H123.402L113.282 37.4V63.16L117.842 63.4C117.842 63.4267 117.829 63.6267 117.802 64L109.762 64.04L109.802 63.48L111.882 63.2C112.149 63.1733 112.309 63 112.362 62.68V37.36C112.309 37.04 112.149 36.8667 111.882 36.84L109.762 36.6ZM147.931 54.8C147.931 60.56 150.171 63.44 154.651 63.44C155.825 63.44 157.078 63.32 158.411 63.08C159.745 62.8133 160.598 62.5733 160.971 62.36L161.251 62.76C160.638 63.16 159.625 63.4933 158.211 63.76C156.825 64.0267 155.545 64.16 154.371 64.16C153.225 64.16 152.185 64.04 151.251 63.8C150.345 63.56 149.411 63.1333 148.451 62.52C147.491 61.9067 146.731 60.9467 146.171 59.64C145.611 58.3333 145.331 56.7333 145.331 54.84C145.331 51.32 146.238 48.6267 148.051 46.76C149.945 44.8133 152.145 43.84 154.651 43.84C157.158 43.84 159.065 44.5333 160.371 45.92C161.705 47.3067 162.371 49.2533 162.371 51.76C162.371 52.2933 162.331 52.8667 162.251 53.48H147.971C147.945 53.7733 147.931 54.2133 147.931 54.8ZM160.011 51.48C160.011 49.48 159.571 47.8533 158.691 46.6C157.811 45.32 156.611 44.68 155.091 44.68C153.118 44.68 151.451 45.5467 150.091 47.28C148.998 48.64 148.318 50.4533 148.051 52.72H159.971C159.998 52.4267 160.011 52.0133 160.011 51.48ZM172.166 54.8C172.166 60.56 174.406 63.44 178.886 63.44C180.059 63.44 181.312 63.32 182.646 63.08C183.979 62.8133 184.832 62.5733 185.206 62.36L185.486 62.76C184.872 63.16 183.859 63.4933 182.446 63.76C181.059 64.0267 179.779 64.16 178.606 64.16C177.459 64.16 176.419 64.04 175.486 63.8C174.579 63.56 173.646 63.1333 172.686 62.52C171.726 61.9067 170.966 60.9467 170.406 59.64C169.846 58.3333 169.566 56.7333 169.566 54.84C169.566 51.32 170.472 48.6267 172.286 46.76C174.179 44.8133 176.379 43.84 178.886 43.84C181.392 43.84 183.299 44.5333 184.606 45.92C185.939 47.3067 186.606 49.2533 186.606 51.76C186.606 52.2933 186.566 52.8667 186.486 53.48H172.206C172.179 53.7733 172.166 54.2133 172.166 54.8ZM184.246 51.48C184.246 49.48 183.806 47.8533 182.926 46.6C182.046 45.32 180.846 44.68 179.326 44.68C177.352 44.68 175.686 45.5467 174.326 47.28C173.232 48.64 172.552 50.4533 172.286 52.72H184.206C184.232 52.4267 184.246 52.0133 184.246 51.48ZM202.134 63.24L203.694 63.16L203.814 63.56C203.787 63.56 203.601 63.6 203.254 63.68C202.454 63.8667 201.561 63.96 200.574 63.96C199.667 63.9067 198.841 63.76 198.094 63.52C197.347 63.2533 196.654 62.72 196.014 61.92C195.374 61.0933 195.054 60.04 195.054 58.76V44.72H193.014L193.334 44.4L195.094 44.04L195.414 40.2L197.654 40V44H202.494V44.72H197.654V58.08C197.654 60.1067 198.081 61.48 198.934 62.2C199.787 62.8933 200.854 63.24 202.134 63.24Z" fill="black"/>
</g>
<rect width="16.7071" height="0.835354" transform="matrix(-0.258819 0.965926 0.965926 0.258819 122.828 9.04071)" fill="black"/>
<rect width="25.0606" height="0.835354" transform="matrix(0 1 1 0 109.102 -6.10352e-05)" fill="black"/>
<rect width="16.7071" height="0.835354" transform="matrix(0.173648 0.984808 0.984808 -0.173648 96.8516 8.77435)" fill="black"/>
<rect width="10.0243" height="0.835355" transform="matrix(-0.469471 0.882948 0.882948 0.469471 135.266 16.3187)" fill="black"/>
<rect width="10.0243" height="0.835354" transform="matrix(0.325568 0.945518 0.945518 -0.325568 86 16.2508)" fill="black"/>
<defs>
<filter id="filter0_d_493_55" x="2" y="34" width="207.812" height="44" filterUnits="userSpaceOnUse" color-interpolation-filters="sRGB">
<feFlood flood-opacity="0" result="BackgroundImageFix"/>
<feColorMatrix in="SourceAlpha" type="matrix" values="0 0 0 0 0 0 0 0 0 0 0 0 0 0 0 0 0 0 127 0" result="hardAlpha"/>
<feOffset dx="4" dy="2"/>
<feGaussianBlur stdDeviation="1"/>
<feComposite in2="hardAlpha" operator="out"/>
<feColorMatrix type="matrix" values="0 0 0 0 1 0 0 0 0 1 0 0 0 0 1 0 0 0 1 0"/>
<feBlend mode="normal" in2="BackgroundImageFix" result="effect1_dropShadow_493_55"/>
<feBlend mode="normal" in="SourceGraphic" in2="effect1_dropShadow_493_55" result="shape"/>
</filter>
</defs>
</svg>
